<svg width="86" height="89" viewBox="0 0 86 89" fill="none" xmlns="http://www.w3.org/2000/svg">
<g clip-path="url(#clip0_994_381)">
<path d="M37.1621 48.8191C37.1621 44.6123 39.0639 40.6235 42.3518 37.9346C45.6396 40.6235 47.5414 44.6123 47.5414 48.8191V84.6231H37.1621V48.8191Z" fill="#195F2E"/>
<path fill-rule="evenodd" clip-rule="evenodd" d="M38.793 0.559944C26.0412 5.96079 17.343 18.4181 17.343 32.6401V84.8579H57.0152L4.54102 84.8591V33.3555C4.54102 14.8212 20.1082 0.0448436 38.793 0.559944Z" fill="#DA291C"/>
<mask id="mask0_994_381" style="mask-type:luminance" maskUnits="userSpaceOnUse" x="4" y="0" width="54" height="85">
<path fill-rule="evenodd" clip-rule="evenodd" d="M38.793 0.559944C26.0412 5.96079 17.343 18.4181 17.343 32.6401V84.8579H57.0152L4.54102 84.8591V33.3555C4.54102 14.8212 20.1082 0.0448436 38.793 0.559944Z" fill="white"/>
</mask>
<g mask="url(#mask0_994_381)">
<path d="M38.7927 0.559758L38.91 0.827787L38.801 0.268069L38.7927 0.559758ZM17.3427 84.8577H17.0461V85.1495H17.3427V84.8577ZM57.0149 84.8577L57.3115 84.8562L57.3101 84.5659H57.0149V84.8577ZM57.0149 84.8577L57.0151 85.1507H57.313L57.3115 84.8562L57.0149 84.8577ZM4.54069 84.8589H4.24414V85.1507H4.54069V84.8589ZM38.6754 0.291728C25.8171 5.73765 17.0461 18.2988 17.0461 32.6399H17.6392C17.6392 18.5369 26.2644 6.18354 38.91 0.827787L38.6754 0.291728ZM17.0461 32.6399V84.8577H17.6392V32.6399H17.0461ZM17.3427 85.1495L57.0151 85.1507L57.0149 84.5659H17.3427V85.1495ZM4.54069 85.1507H57.0151L57.0149 84.5659L4.54069 84.5671V85.1507ZM4.24414 33.3553V84.8589H4.83724V33.3553H4.24414ZM38.801 0.268069C19.9497 -0.251619 4.24414 14.6561 4.24414 33.3553H4.83724C4.83724 14.9858 20.2659 0.340933 38.7844 0.851446L38.801 0.268069Z" fill="#195F2E"/>
</g>
<path fill-rule="evenodd" clip-rule="evenodd" d="M21.6797 34.0432C21.6797 19.9551 29.553 7.00825 42.1701 0.349137C63.006 -2.58287 81.6496 13.3254 81.6496 34.0364V84.8618L67.7291 84.8614V31.0522C67.7291 18.5151 57.2404 8.43581 44.5028 8.73269C33.5982 8.98686 24.893 17.7581 24.893 28.4909V84.86L21.6797 84.8599V34.0432Z" fill="#195F2E"/>
<mask id="mask1_994_381" style="mask-type:luminance" maskUnits="userSpaceOnUse" x="21" y="0" width="61" height="85">
<path fill-rule="evenodd" clip-rule="evenodd" d="M21.6797 34.0432C21.6797 19.9551 29.553 7.00825 42.1701 0.349137C63.006 -2.58287 81.6496 13.3254 81.6496 34.0364V84.8618L67.7291 84.8614V31.0522C67.7291 18.5151 57.2404 8.43581 44.5028 8.73269C33.5982 8.98686 24.893 17.7581 24.893 28.4909V84.86L21.6797 84.8599V34.0432Z" fill="white"/>
</mask>
<g mask="url(#mask1_994_381)">
<path d="M42.1698 0.349002L42.1276 0.0601365L42.0757 0.0674465L42.0295 0.0918532L42.1698 0.349002ZM81.6492 84.8616V85.1535L81.9458 85.1536V84.8616H81.6492ZM67.7288 84.8612H67.4322V85.153H67.7288V84.8612ZM24.8927 84.8599L24.8925 85.1517H25.1892V84.8599H24.8927ZM21.6794 84.8597H21.3828V85.1516H21.6794V84.8597ZM42.0295 0.0918532C29.3162 6.8018 21.3828 19.8474 21.3828 34.0431H21.9759C21.9759 20.0625 29.7892 7.21445 42.3099 0.606149L42.0295 0.0918532ZM81.9458 34.0362C81.9458 13.1477 63.1423 -2.897 42.1276 0.0601365L42.2117 0.637865C62.8689 -2.26899 81.3527 13.5029 81.3527 34.0362H81.9458ZM81.9458 84.8616V34.0362H81.3527V84.8616H81.9458ZM67.7288 85.153L81.6492 85.1535L81.6494 84.5698L67.7288 84.5694V85.153ZM67.4322 31.0521V84.8612H68.0254V31.0521H67.4322ZM44.5094 9.02429C57.0805 8.73127 67.4322 18.6788 67.4322 31.0521H68.0254C68.0254 18.3511 57.3995 8.14007 44.4953 8.44084L44.5094 9.02429ZM25.1892 28.4908C25.1892 17.9164 33.7659 9.2747 44.5094 9.02429L44.4953 8.44084C33.4298 8.69875 24.5961 17.5994 24.5961 28.4908H25.1892ZM25.1892 84.8599V28.4908H24.5961V84.8599H25.1892ZM21.6794 85.1516L24.8925 85.1517L24.8927 84.5681L21.6794 84.5679V85.1516ZM21.3828 34.0431V84.8597H21.9759V34.0431H21.3828Z" fill="#195F2E"/>
</g>
<path fill-rule="evenodd" clip-rule="evenodd" d="M42.5505 12.4297C31.0174 12.4297 21.668 21.6295 21.668 32.978V84.9655H32.7133V45.6941C32.7133 38.5046 36.32 31.7787 42.3513 27.7209C48.3825 31.7787 51.9892 38.5046 51.9892 45.6939V84.9655H63.4333V32.978C63.4333 21.6295 54.0837 12.4297 42.5505 12.4297Z" fill="#195F2E"/>
<mask id="mask2_994_381" style="mask-type:luminance" maskUnits="userSpaceOnUse" x="21" y="12" width="43" height="73">
<path fill-rule="evenodd" clip-rule="evenodd" d="M42.5505 12.4297C31.0174 12.4297 21.668 21.6295 21.668 32.978V84.9655H32.7133V45.6941C32.7133 38.5046 36.32 31.7787 42.3513 27.7209C48.3825 31.7787 51.9892 38.5046 51.9892 45.6939V84.9655H63.4333V32.978C63.4333 21.6295 54.0837 12.4297 42.5505 12.4297Z" fill="white"/>
</mask>
<g mask="url(#mask2_994_381)">
<path d="M21.6676 84.9653H21.3711V85.2571H21.6676V84.9653ZM32.713 84.9653V85.2571H33.0096V84.9653H32.713ZM42.3509 27.7207L42.5183 27.4798L42.3509 27.3672L42.1835 27.4798L42.3509 27.7207ZM51.9889 84.9653H51.6923V85.2571H51.9889V84.9653ZM63.433 84.9653V85.2571H63.7295V84.9653H63.433ZM21.9642 32.9778C21.9642 21.7904 31.1809 12.7213 42.5502 12.7213V12.1377C30.8533 12.1377 21.3711 21.4681 21.3711 32.9778H21.9642ZM21.9642 84.9653V32.9778H21.3711V84.9653H21.9642ZM32.713 84.6735H21.6676V85.2571H32.713V84.6735ZM33.0096 84.9653V45.6939H32.4165V84.9653H33.0096ZM33.0096 45.6939C33.0096 38.6009 36.5679 31.9651 42.5183 27.9616L42.1835 27.4798C36.0715 31.592 32.4165 38.4081 32.4165 45.6939H33.0096ZM42.1835 27.9616C48.134 31.9651 51.6923 38.6009 51.6923 45.6937H52.2854C52.2854 38.4081 48.6304 31.592 42.5183 27.4798L42.1835 27.9616ZM51.6923 45.6937V84.9653H52.2854V45.6937H51.6923ZM63.433 84.6735H51.9889V85.2571H63.433V84.6735ZM63.1364 32.9778V84.9653H63.7295V32.9778H63.1364ZM42.5502 12.7213C53.9196 12.7213 63.1364 21.7904 63.1364 32.9778H63.7295C63.7295 21.4681 54.2473 12.1377 42.5502 12.1377V12.7213Z" fill="#195F2E"/>
</g>
<path d="M76.2152 31.04L44.6855 65.6299L48.4586 68.9599L79.9883 34.37L76.2152 31.04Z" fill="white"/>
<path d="M32.7363 50.0676L3 83.6514L6.06632 86.2801L35.8026 52.6963L32.7363 50.0676Z" fill="white"/>
<path d="M51.2593 65.8565L32.7363 50.0938L30.0101 53.1956L48.5331 68.9583L51.2593 65.8565Z" fill="white"/>
<g filter="url(#filter0_d_994_381)">
<path d="M33.1649 51.1636L4.1123 83.0352L6.37557 85.0327L35.4281 53.1611L33.1649 51.1636Z" fill="#EFFF3B"/>
<path d="M50.2578 66.0549L33.2754 51.0566L31.2446 53.283L48.227 68.2812L50.2578 66.0549Z" fill="#EFFF3B"/>
<path d="M78.7385 30.0024L45.8037 66.1338L48.2054 68.2535L81.1403 32.1221L78.7385 30.0024Z" fill="#EFFF3B"/>
<path d="M68.3799 32.1348H80.9492V29.2167H68.3799V32.1348Z" fill="#EFFF3B"/>
<path d="M78.7598 29.1882V42.3193H81.7253V29.1882H78.7598Z" fill="#EFFF3B"/>
</g>
</g>
<defs>
<filter id="filter0_d_994_381" x="2.1123" y="27.1885" width="81.6133" height="59.8438" filterUnits="userSpaceOnUse" color-interpolation-filters="sRGB">
<feFlood flood-opacity="0" result="BackgroundImageFix"/>
<feColorMatrix in="SourceAlpha" type="matrix" values="0 0 0 0 0 0 0 0 0 0 0 0 0 0 0 0 0 0 127 0" result="hardAlpha"/>
<feOffset/>
<feGaussianBlur stdDeviation="1"/>
<feComposite in2="hardAlpha" operator="out"/>
<feColorMatrix type="matrix" values="0 0 0 0 0 0 0 0 0 0 0 0 0 0 0 0 0 0 0.8 0"/>
<feBlend mode="normal" in2="BackgroundImageFix" result="effect1_dropShadow_994_381"/>
<feBlend mode="normal" in="SourceGraphic" in2="effect1_dropShadow_994_381" result="shape"/>
</filter>
<clipPath id="clip0_994_381">
<rect width="86" height="89" fill="white"/>
</clipPath>
</defs>
</svg>
